HIERARCHY
ROOT Pelvis
{
	OFFSET 0.000000 0.000000 0.000000
	CHANNELS 6 Xposition Yposition Zposition Xrotation Yrotation Zrotation
	JOINT LeftUpLeg_virtual
	{
		OFFSET 0.000000 0.000000 0.000000
		CHANNELS 3 Xrotation Yrotation Zrotation
		JOINT LeftUpLeg
		{
			OFFSET 18.735201 -5.666702 -4.541200
			CHANNELS 3 Xrotation Yrotation Zrotation
			JOINT LeftLeg
			{
				OFFSET -0.021200 -31.938179 0.493100
				CHANNELS 3 Xrotation Yrotation Zrotation
				JOINT LeftFoot
				{
					OFFSET 0.021200 -31.938179 -4.336299
					CHANNELS 3 Xrotation Yrotation Zrotation
					JOINT LeftToeBase
					{
						OFFSET 0.943001 -26.722000 15.023500
						CHANNELS 3 Xrotation Yrotation Zrotation
						End Site
						{
							OFFSET 0 0 0
						}
					}
				}
			}
		}
	}
	JOINT RightUpLeg_virtual
	{
		OFFSET 0.000000 0.000000 0.000000
		CHANNELS 3 Xrotation Yrotation Zrotation
		JOINT RightUpLeg
		{
			OFFSET -18.735201 -5.666702 -4.541200
			CHANNELS 3 Xrotation Yrotation Zrotation
			JOINT RightLeg
			{
				OFFSET 0.018946 -31.938133 0.493100
				CHANNELS 3 Xrotation Yrotation Zrotation
				JOINT RightFoot
				{
					OFFSET -0.018946 -31.938126 -4.336299
					CHANNELS 3 Xrotation Yrotation Zrotation
					JOINT RightToeBase
					{
						OFFSET -0.943001 -26.722004 15.023500
						CHANNELS 3 Xrotation Yrotation Zrotation
						End Site
						{
							OFFSET 0 0 0
						}
					}
				}
			}
		}
	}
	JOINT Hips_virtual
	{
		OFFSET 0.000000 0.000000 0.000000
		CHANNELS 3 Xrotation Yrotation Zrotation
		JOINT Hips
		{
			OFFSET -0.000000 -0.000000 -0.000000
			CHANNELS 3 Xrotation Yrotation Zrotation
			JOINT Spine
			{
				OFFSET 0.000000 10.199997 -0.299500
				CHANNELS 3 Xrotation Yrotation Zrotation
				JOINT Spine1
				{
					OFFSET 0.000000 11.900002 -1.516600
					CHANNELS 3 Xrotation Yrotation Zrotation
					JOINT Spine2
					{
						OFFSET 0.000000 13.600006 -2.842500
						CHANNELS 3 Xrotation Yrotation Zrotation
						JOINT Neck_virtual
						{
							OFFSET 0.000000 0.000000 0.000000
							CHANNELS 3 Xrotation Yrotation Zrotation
							JOINT Neck
							{
								OFFSET 0.000000 9.624100 -2.890100
								CHANNELS 3 Xrotation Yrotation Zrotation
								JOINT Head
								{
									OFFSET 0.000000 14.068802 -1.351900
									CHANNELS 3 Xrotation Yrotation Zrotation
									End Site
									{
										OFFSET 0 0 0
									}
								}
							}
						}
						JOINT LeftShoulder_virtual
						{
							OFFSET 0.000000 0.000000 0.000000
							CHANNELS 3 Xrotation Yrotation Zrotation
							JOINT LeftShoulder
							{
								OFFSET 15.263000 10.923401 -0.547700
								CHANNELS 3 Xrotation Yrotation Zrotation
								JOINT LeftArm
								{
									OFFSET 25.438599 -2.830597 -13.032500
									CHANNELS 3 Xrotation Yrotation Zrotation
									JOINT LeftForeArm
									{
										OFFSET 29.960503 0.000000 0.000000
										CHANNELS 3 Xrotation Yrotation Zrotation
										JOINT LeftHand
										{
											OFFSET 27.849251 0.000000 0.000000
											CHANNELS 3 Xrotation Yrotation Zrotation
											End Site
											{
												OFFSET 0 0 0
											}
										}
									}
								}
							}
						}
						JOINT RightShoulder_virtual
						{
							OFFSET 0.000000 0.000000 0.000000
							CHANNELS 3 Xrotation Yrotation Zrotation
							JOINT RightShoulder
							{
								OFFSET -15.263000 10.923401 -0.547700
								CHANNELS 3 Xrotation Yrotation Zrotation
								JOINT RightArm
								{
									OFFSET -25.438599 -2.830597 -13.032500
									CHANNELS 3 Xrotation Yrotation Zrotation
									JOINT RightForeArm
									{
										OFFSET -29.960503 0.000000 0.000000
										CHANNELS 3 Xrotation Yrotation Zrotation
										JOINT RightHand
										{
											OFFSET -27.849251 0.000000 0.000000
											CHANNELS 3 Xrotation Yrotation Zrotation
											End Site
											{
												OFFSET 0 0 0
											}
										}
									}
								}
							}
						}
					}
				}
			}
		}
	}
}
MOTION
Frames: 13
Frame Time: 0.03333333
-1.304595 93.332161 4.221666 0.000000 0.000000 0.000000 -12.760351 -3.970278 7.241715 7.007751 16.665685 -11.340929 15.971033 0.998453 -4.616255 -9.424396 3.499606 6.319110 0.000000 0.000000 0.000000 -13.489533 -3.074730 7.203397 -12.488107 -12.663774 -27.757257 32.895342 2.951771 -0.089400 -16.698528 -12.844489 19.327449 0.000000 0.000000 0.000000 -13.052387 -4.759702 7.239827 0.982243 0.290297 -1.810334 5.050399 2.536331 -1.600413 5.158497 1.866267 -3.199904 0.000000 0.000000 0.000000 5.394859 1.385069 -3.027275 -0.819762 0.662609 -0.971648 0.000000 0.000000 0.000000 3.555370 1.441810 -3.475040 4.104053 -13.360729 -2.454797 3.766953 -13.108317 -56.680096 4.986731 -29.286202 -3.565766 0.000000 0.000000 0.000000 4.913673 1.545460 -3.324636 2.302282 14.338724 7.246805 -5.704095 -8.677920 65.461756 22.645479 20.778725 8.957404 0.000000 0.000000 0.000000 
-1.493567 93.503731 4.465109 0.000000 0.000000 0.000000 -12.776504 -4.037445 7.306957 6.011917 16.463630 -10.442236 16.528006 0.705673 -4.305059 -7.232921 3.721071 5.948459 0.000000 0.000000 0.000000 -13.247362 -3.069544 7.180106 -12.194395 -12.602212 -27.510986 31.696377 2.452437 -0.015109 -15.232357 -12.736758 19.404791 0.000000 0.000000 0.000000 -13.006430 -4.955930 7.339871 0.828782 0.722513 -1.774259 5.590911 2.477034 -1.455198 5.626122 1.848965 -3.166108 0.000000 0.000000 0.000000 5.956719 1.388960 -3.042981 -1.099751 0.605697 -1.016147 0.000000 0.000000 0.000000 4.085015 1.367794 -3.428468 4.776452 -14.337455 -1.480556 6.604494 -15.531039 -55.954662 4.995197 -31.393366 -2.720279 0.000000 0.000000 0.000000 5.278162 1.589804 -3.261144 2.564653 14.970328 6.779074 -3.376993 -5.853762 66.765113 22.823719 21.274450 7.253355 0.000000 0.000000 0.000000 
-1.890980 94.029182 4.713772 0.000000 0.000000 0.000000 -12.645217 -4.295202 7.343509 4.697916 16.102412 -9.215239 16.948363 0.389322 -3.629683 -4.167227 3.965775 5.421306 0.000000 0.000000 0.000000 -12.770107 -3.085593 7.061543 -10.974213 -12.212799 -26.591233 28.771052 1.844870 -0.057332 -10.832315 -12.255432 20.310867 0.000000 0.000000 0.000000 -12.979827 -5.055380 7.310337 0.679085 0.844810 -1.765548 5.892125 2.265183 -1.598454 6.675837 1.739330 -2.910614 0.000000 0.000000 0.000000 6.994912 1.313813 -2.861916 -1.636914 0.538854 -1.160065 0.000000 0.000000 0.000000 5.427256 1.222232 -3.087545 5.013864 -15.858905 -0.488612 14.779927 -18.395040 -51.438339 4.421522 -38.358267 -1.072501 0.000000 0.000000 0.000000 6.413334 1.567941 -2.968843 2.883402 15.416842 5.639083 1.023506 -0.779855 65.810785 23.242077 25.345157 3.272346 0.000000 0.000000 0.000000 
-2.396935 94.809006 4.763983 0.000000 0.000000 0.000000 -12.364584 -4.565736 7.228348 3.295689 15.627589 -7.887056 17.021569 0.151408 -2.727236 -0.518843 4.120591 4.627997 0.000000 0.000000 0.000000 -12.226237 -3.096749 6.751612 -9.807663 -11.238709 -25.331959 25.932459 1.310628 -0.144787 -5.000802 -11.336475 21.259701 0.000000 0.000000 0.000000 -12.907794 -4.928503 7.050493 0.446421 0.710689 -1.722528 6.022734 1.906680 -1.877159 8.189737 1.574500 -2.495880 0.000000 0.000000 0.000000 8.324417 1.189420 -2.548995 -2.294040 0.491740 -1.368759 0.000000 0.000000 0.000000 7.262277 1.069171 -2.601960 4.706342 -17.637304 -0.103836 26.104109 -19.859313 -44.613477 3.887892 -49.491117 1.883788 0.000000 0.000000 0.000000 8.084570 1.507302 -2.556856 3.052581 15.593347 4.528585 6.451704 5.045670 62.647663 24.648302 32.619932 -3.307481 0.000000 0.000000 0.000000 
-2.885910 95.689713 4.562954 0.000000 0.000000 0.000000 -12.047211 -4.648891 6.772705 1.808632 15.128114 -6.639648 17.019628 0.078345 -1.768720 3.615853 4.294421 3.765641 0.000000 0.000000 0.000000 -11.744497 -3.073452 6.153921 -9.863725 -9.309892 -24.136895 25.332497 1.081160 -0.237800 0.695967 -9.914472 21.650409 0.000000 0.000000 0.000000 -12.712309 -4.479708 6.447564 0.410432 0.419435 -1.697240 6.226165 1.437134 -2.088032 9.986313 1.401303 -2.036315 0.000000 0.000000 0.000000 9.820408 1.073906 -2.191800 -2.872904 0.464944 -1.599489 0.000000 0.000000 0.000000 9.279241 0.951211 -2.130880 3.822643 -19.380494 -0.832428 37.451782 -19.489282 -37.915610 4.897528 -62.864788 7.422715 0.000000 0.000000 0.000000 10.065044 1.430116 -2.131030 3.025770 15.445013 4.372727 12.183728 10.319415 58.032354 28.002025 41.840315 -12.864450 0.000000 0.000000 0.000000 
-3.230589 96.489365 4.072704 0.000000 0.000000 0.000000 -11.661547 -4.397774 5.876039 0.103326 14.683860 -5.561586 17.290373 0.272160 -0.924236 7.483115 4.621397 3.083018 0.000000 0.000000 0.000000 -11.358271 -2.889456 5.206135 -12.135653 -6.301818 -23.066749 28.208847 1.432739 -0.133097 5.653970 -7.671766 21.703925 0.000000 0.000000 0.000000 -12.339287 -3.808102 5.520225 0.377592 0.231845 -1.795024 6.784822 0.880301 -2.073905 11.893024 1.255797 -1.634123 0.000000 0.000000 0.000000 11.332627 1.027432 -1.841563 -3.189405 0.468171 -1.814994 0.000000 0.000000 0.000000 11.193767 0.943556 -1.771864 2.526508 -20.879673 -2.597077 46.304321 -18.308073 -32.487088 11.679415 -74.755082 19.300629 0.000000 0.000000 0.000000 12.108706 1.369172 -1.747685 2.717243 15.398110 5.671013 17.517787 14.079324 52.508736 34.463577 51.122480 -25.758537 0.000000 0.000000 0.000000 
-3.444401 97.137291 3.415758 0.000000 0.000000 0.000000 -11.198400 -3.639941 4.609223 -1.759629 14.221131 -4.743186 17.529943 0.549691 -0.235823 9.942525 4.862302 2.511783 0.000000 0.000000 0.000000 -10.971398 -2.296895 3.964389 -17.071399 -2.677382 -21.995574 34.896785 2.368837 0.171031 9.409983 -4.679379 21.348103 0.000000 0.000000 0.000000 -11.760600 -2.886154 4.319210 0.168951 0.183441 -1.729662 7.737278 0.303084 -1.792021 13.760156 1.167302 -1.309863 0.000000 0.000000 0.000000 12.867572 1.067136 -1.529655 -3.074104 0.469845 -1.969260 0.000000 0.000000 0.000000 12.892868 1.050526 -1.580390 1.193789 -22.021520 -5.101885 51.460933 -17.607019 -27.476017 33.984146 -81.744667 46.666902 0.000000 0.000000 0.000000 14.010887 1.367532 -1.475410 2.179262 15.628665 8.020577 21.902750 15.785395 46.014100 44.618177 58.874871 -42.007661 0.000000 0.000000 0.000000 
-3.654093 97.685127 2.626146 0.000000 0.000000 0.000000 -10.568400 -2.433062 3.168491 -3.540373 13.762567 -4.113869 17.338804 0.691859 0.223879 10.841150 4.842889 1.960100 0.000000 0.000000 0.000000 -10.599424 -1.337646 2.596250 -24.040442 0.823472 -20.473970 43.996814 3.545293 0.337610 11.546096 -1.796240 20.006618 0.000000 0.000000 0.000000 -10.999282 -1.795038 3.012354 -0.003167 -0.056110 -1.500939 8.915113 -0.173381 -1.328920 15.434081 1.204932 -1.059912 0.000000 0.000000 0.000000 14.419643 1.210550 -1.299158 -2.460327 0.432557 -2.036259 0.000000 0.000000 0.000000 14.352097 1.256243 -1.486846 -0.001291 -22.720144 -7.802167 52.903462 -17.376428 -21.562924 60.567672 -83.102693 77.590225 0.000000 0.000000 0.000000 15.684544 1.453026 -1.310416 1.492605 16.229436 10.593423 24.734198 15.296639 38.815166 59.358060 64.813359 -61.988400 0.000000 0.000000 0.000000 
-3.956195 98.103653 1.713129 0.000000 0.000000 0.000000 -9.761198 -0.891033 1.791521 -5.286339 13.580771 -3.435298 16.675051 0.900063 0.358801 10.749420 4.734038 1.521384 0.000000 0.000000 0.000000 -10.106795 -0.047939 1.312282 -31.676986 3.079502 -18.464489 53.417233 4.216423 0.240761 11.628306 -0.341628 17.167658 0.000000 0.000000 0.000000 -10.117267 -0.574665 1.821219 0.140156 -0.405928 -1.257191 9.954774 -0.485276 -0.871695 16.836326 1.414580 -0.905126 0.000000 0.000000 0.000000 15.910150 1.457101 -1.168111 -1.360732 0.363541 -2.007979 0.000000 0.000000 0.000000 15.541313 1.570422 -1.426524 -0.930943 -22.938847 -10.180373 51.480355 -17.063809 -14.499286 72.999306 -82.989353 92.870915 0.000000 0.000000 0.000000 17.116405 1.676962 -1.252326 0.664630 17.519165 12.925587 25.664950 13.076947 31.790033 79.937577 68.637848 -86.642623 0.000000 0.000000 0.000000 
-4.344222 98.269012 0.770216 0.000000 0.000000 0.000000 -8.800235 0.613248 0.705975 -7.536645 13.665432 -2.601098 16.387861 1.196189 0.260872 10.451795 4.687357 1.374086 0.000000 0.000000 0.000000 -9.446958 1.373486 0.303524 -38.401164 3.454077 -16.545759 61.765578 3.864147 -0.124194 9.259182 -1.138044 12.484107 0.000000 0.000000 0.000000 -9.127274 0.676911 0.910163 0.309507 -1.003987 -0.938231 10.497129 -0.591087 -0.637501 17.949338 1.776584 -0.850149 0.000000 0.000000 0.000000 17.285628 1.791754 -1.165231 0.115220 0.267358 -1.893150 0.000000 0.000000 0.000000 16.561619 1.966097 -1.427350 -1.537448 -22.758445 -11.908146 47.711672 -16.186112 -7.210576 100.080508 -82.665137 120.766870 0.000000 0.000000 0.000000 18.331381 1.997246 -1.294756 -0.192442 19.166747 14.907144 24.754897 9.801730 25.914875 105.550000 69.552226 -115.046532 0.000000 0.000000 0.000000 
-4.739623 97.894135 -0.161377 0.000000 0.000000 0.000000 -7.719545 1.616952 0.000236 -10.861650 13.599485 -1.634865 17.875134 1.540203 0.150879 10.438560 5.010466 1.849257 0.000000 0.000000 0.000000 -8.551885 2.330894 -0.341792 -42.732481 2.020946 -15.046282 67.587181 2.846697 -0.485380 5.170711 -3.333699 7.000471 0.000000 0.000000 0.000000 -8.083911 1.691271 0.390970 0.255624 -1.508453 -0.849704 10.503941 -0.443043 -0.672463 18.855639 2.241789 -0.929994 0.000000 0.000000 0.000000 18.465756 2.176088 -1.313483 1.812454 0.156009 -1.702133 0.000000 0.000000 0.000000 17.514794 2.401337 -1.516599 -1.915206 -22.519730 -12.963221 41.627104 -15.005319 -1.749672 134.470961 -79.210605 153.728092 0.000000 0.000000 0.000000 19.425806 2.363016 -1.425994 -1.054457 21.130380 16.721013 22.013858 5.993757 21.927928 127.839039 67.702392 -138.617555 0.000000 0.000000 0.000000 
-5.149761 96.702888 -1.039097 0.000000 0.000000 0.000000 -6.603849 1.815502 -0.313376 -15.374768 13.068488 -0.583924 22.082876 1.867089 0.185846 9.929982 5.576368 2.781919 0.000000 0.000000 0.000000 -7.332720 2.632624 -0.684635 -44.071143 -0.799568 -14.199299 70.009248 1.812989 -0.659471 0.264859 -5.682640 2.358998 0.000000 0.000000 0.000000 -7.032625 2.189794 0.214138 0.113519 -1.773715 -0.944021 10.194603 -0.070431 -0.889236 19.670303 2.710160 -1.168952 0.000000 0.000000 0.000000 19.432049 2.538879 -1.576669 3.524486 0.039913 -1.448110 0.000000 0.000000 0.000000 18.464786 2.814042 -1.703046 -2.198981 -22.455154 -13.644098 32.695173 -14.676518 0.266395 151.512884 -74.195648 167.811464 0.000000 0.000000 0.000000 20.434434 2.721415 -1.655531 -1.931915 23.331511 18.598240 16.881629 2.500340 20.201661 140.987249 66.546055 -151.607414 0.000000 0.000000 0.000000 
-5.613063 94.603203 -1.859264 0.000000 0.000000 0.000000 -5.410256 1.204888 -0.329871 -20.892217 11.688580 0.406049 29.132157 1.801194 0.439596 7.386081 5.662702 3.590369 0.000000 0.000000 0.000000 -5.899608 2.268961 -0.831711 -42.940590 -4.375769 -13.686786 69.177768 1.304966 -0.594925 -5.060257 -7.502235 -0.102242 0.000000 0.000000 0.000000 -5.865292 2.120892 0.254302 -0.155267 -1.960543 -1.110668 9.907013 0.485576 -1.168074 20.461771 3.094724 -1.527605 0.000000 0.000000 0.000000 20.251053 2.816456 -1.923510 5.082759 -0.063784 -1.150023 0.000000 0.000000 0.000000 19.488738 3.112719 -1.994160 -2.503144 -22.912397 -14.461759 20.422841 -16.002488 -2.156100 157.271813 -73.099423 169.785047 0.000000 0.000000 0.000000 21.339104 2.982374 -1.956596 -2.666355 25.243572 20.192872 8.784561 0.587911 20.465424 144.950766 69.822524 -154.260068 0.000000 0.000000 0.000000 
